<?xml version="1.0" encoding="UTF-8" standalone="no"?>
<!-- Created with Inkscape (http://www.inkscape.org/) -->

<svg
   xmlns:dc="http://purl.org/dc/elements/1.1/"
   xmlns:cc="http://creativecommons.org/ns#"
   xmlns:rdf="http://www.w3.org/1999/02/22-rdf-syntax-ns#"
   xmlns:svg="http://www.w3.org/2000/svg"
   xmlns="http://www.w3.org/2000/svg"
   version="1.1"
   width="32.004002"
   height="32"
   viewBox="0 0 32.004002 32"
   id="Layer_1"
   xml:space="preserve"><metadata
     id="metadata12"><rdf:RDF><cc:Work
         rdf:about=""><dc:format>image/svg+xml</dc:format><dc:type
           rdf:resource="http://purl.org/dc/dcmitype/StillImage" /><dc:title></dc:title></cc:Work></rdf:RDF></metadata><defs
     id="defs10" /><g
     transform="translate(-1,0)"
     id="key"><path
       d="m 23.004,0 c -5.523,0 -10,4.478 -10,10 0,1.285 0.269,2.501 0.713,3.629 L 1.568,25.777 C 1.217,26.129 1,26.463 1,27 l 0,3 c 0,1.07 0.929,2 2,2 l 3,0 c 0.536,0 0.875,-0.215 1.226,-0.564 L 8.661,30 l 2.343,0 c 1.104,0 2,-0.896 2,-2 l 0,-2 2,0 c 1.104,0 2,-0.896 2,-2 l 0,-2.344 2.369,-2.371 C 20.502,19.73 21.717,20 23.004,20 c 5.521,0 10,-4.478 10,-10 0,-5.522 -4.479,-10 -10,-10 z m 0,18 c -1.48,0 -2.852,-0.43 -4.041,-1.132 l -0.344,0.343 -1.125,1.125 -1.905,1.906 c -0.375,0.375 -0.586,0.883 -0.586,1.414 l 0,2.344 -2,0 c -1.104,0 -2,0.895 -2,2 l 0,2 -2.342,0 c -0.53,0 -1.039,0.211 -1.414,0.586 L 5.829,30.004 3.003,30 3,27.15 14.665,15.506 c 0,0 0,10e-4 0.001,0.002 l 1.469,-1.469 c -0.702,-1.189 -1.132,-2.56 -1.132,-4.04 0,-4.418 3.583,-8 8,-8 4.417,0 8,3.582 8,8 0,4.418 -3.581,8.001 -7.999,8.001 z"
       id="path4"
       style="fill:#333333" /><path
       d="M 28.82,8.239 C 27.699,6.677 26.334,5.314 24.765,4.185 24.51,4 24.18,3.954 23.883,4.058 22.494,4.547 21.543,5.497 21.057,6.886 21.02,6.99 21.002,7.098 21.002,7.205 c 0,0.199 0.062,0.396 0.182,0.563 1.125,1.564 2.488,2.928 4.053,4.053 0.256,0.184 0.584,0.231 0.881,0.128 1.391,-0.486 2.342,-1.438 2.83,-2.828 C 28.985,9.017 29.003,8.909 29.003,8.802 29.002,8.603 28.939,8.406 28.82,8.239 Z m -3,2.771 C 24.342,9.947 23.055,8.66 22,7.217 22.387,6.114 23.111,5.39 24.182,4.996 c 1.479,1.065 2.764,2.349 3.816,3.811 -0.391,1.095 -1.113,1.815 -2.178,2.203 z"
       id="path6"
       style="fill:#333333" /></g></svg>