<?xml version="1.0" encoding="UTF-8" standalone="no"?>
<!-- Created with Inkscape (http://www.inkscape.org/) -->

<svg
   xmlns:dc="http://purl.org/dc/elements/1.1/"
   xmlns:cc="http://creativecommons.org/ns#"
   xmlns:rdf="http://www.w3.org/1999/02/22-rdf-syntax-ns#"
   xmlns:svg="http://www.w3.org/2000/svg"
   xmlns="http://www.w3.org/2000/svg"
   xmlns:sodipodi="http://sodipodi.sourceforge.net/DTD/sodipodi-0.dtd"
   xmlns:inkscape="http://www.inkscape.org/namespaces/inkscape"
   width="24"
   height="24"
   id="svg2"
   sodipodi:version="0.32"
   inkscape:version="0.91 r13725"
   version="1.0"
   sodipodi:docname="decorator_taskstate_cancelled.svg"
   inkscape:output_extension="org.inkscape.output.svg.inkscape"
   viewBox="0 0 24 24">
  <defs
     id="defs4" />
  <sodipodi:namedview
     id="base"
     pagecolor="#ffffff"
     bordercolor="#666666"
     borderopacity="1.0"
     gridtolerance="10000"
     guidetolerance="10"
     objecttolerance="10"
     inkscape:pageopacity="0.0"
     inkscape:pageshadow="2"
     inkscape:zoom="26.506384"
     inkscape:cx="4.8358752"
     inkscape:cy="15.492491"
     inkscape:document-units="px"
     inkscape:current-layer="layer1"
     width="744.09449px"
     height="1052.3622px"
     showgrid="true"
     gridanglex="8.4666669mm"
     gridanglez="8.4666669mm"
     grid_units="mm"
     inkscape:window-width="1272"
     inkscape:window-height="746"
     inkscape:window-x="0"
     inkscape:window-y="0"
     inkscape:snap-bbox="true"
     inkscape:bbox-nodes="true"
     inkscape:object-nodes="true"
     inkscape:snap-global="false">
    <inkscape:grid
       id="GridFromPre046Settings"
       type="xygrid"
       originx="0px"
       originy="0px"
       spacingx="0.5"
       spacingy="0.5"
       color="#3f3fff"
       empcolor="#3f3fff"
       opacity="0.15"
       empopacity="0.38"
       empspacing="5" />
  </sodipodi:namedview>
  <metadata
     id="metadata7">
    <rdf:RDF>
      <cc:Work
         rdf:about="">
        <dc:format>image/svg+xml</dc:format>
        <dc:type
           rdf:resource="http://purl.org/dc/dcmitype/StillImage" />
        <dc:title></dc:title>
      </cc:Work>
    </rdf:RDF>
  </metadata>
  <g
     inkscape:label="Layer 1"
     inkscape:groupmode="layer"
     id="layer1"
     transform="translate(0,-29.022666)">
    <path
       inkscape:connector-curvature="0"
       style="fill:#000000"
       d="m 3,32.022666 0,18 1.4570312,0 c -0.091672,-0.2172 -0.1542968,-0.444155 -0.1542968,-0.677734 0,-0.631771 0.00651,-1.072143 0.1777344,-1.554688 l 0,-0.002 c 0.1218466,-0.34117 0.243224,-0.491846 0.453125,-0.818359 l -0.00195,0 C 4.9539158,46.935209 4.977675,46.902992 5,46.868369 l 0,-12.845703 3.8535156,0 c 0.1120134,-0.03149 0.2301176,-0.05859 0.3710938,-0.05859 0.1087008,0 0.1783128,0.02809 0.2441406,0.05859 l 0.2421875,0 c 0.2241829,-0.115403 0.4487045,-0.234375 0.6777345,-0.234375 0.251354,0 0.544849,0.07328 0.802734,0.234375 l 3.978516,0 c 0.117099,-0.121307 0.210951,-0.236342 0.333984,-0.359375 0.244528,-0.244527 0.451033,-0.556641 1.125,-0.556641 0.414363,0 0.517521,0.177309 0.677735,0.320313 0.151159,-0.09934 0.207286,-0.242188 0.498047,-0.242188 0.709862,0 0.912843,0.334597 1.169921,0.601563 l 0.0039,0.0039 0.0039,0.0039 c 0.258046,0.274152 0.447279,0.695731 0.447279,1.103508 -10e-7,0.418836 -0.181239,0.824922 -0.429688,1.128906 l 0,11.996094 -2.583984,0 c -0.08495,0.187033 -0.200203,0.354054 -0.363282,0.472656 l -0.0098,0.0059 -0.0098,0.0078 c -0.249627,0.172819 -0.398437,0.375 -0.986328,0.375 -0.522821,0 -1.022389,-0.318184 -1.296875,-0.673828 0,0 -0.002,-0.002 -0.002,-0.002 -0.04341,-0.05586 -0.08895,-0.127661 -0.132697,-0.185528 l -3.583984,0 c -0.3961142,0.59957 -0.8232164,1.287957 -1.2578125,2 l 12.2265625,0 0,-18 -18,0 z m 14.599609,1.53125 c 0.0059,0.0056 0.0097,0.01383 0.01563,0.01953 0.0011,0.0011 0.0048,8.53e-4 0.0059,0.002 l -0.02153,-0.02148 z M 6.6328125,48.022666 c -0.00592,0.0092 -0.011665,0.01813 -0.017578,0.02734 -0.184964,0.287722 -0.297314,0.543058 -0.25,0.410156 l 0,0.002 c 0.00971,-0.02662 -0.0625,0.343895 -0.0625,0.882813 0,0.168093 -0.063978,0.04392 0.041016,0.101562 l 0.3222656,0.177734 C 6.99949,49.063261 7.3197268,48.539492 7.6386719,48.022666 l -1.0058594,0 z"
       id="rect5400" />
    <path
       inkscape:connector-curvature="0"
       id="path7136"
       style="fill:#000000"
       d="m 16.628718,34.107674 q 0.109864,0 0.285645,0.175781 0.186767,0.175781 0.384521,0.461426 0.318604,-0.560303 0.505371,-0.560303 0.164795,0 0.45044,0.296631 0.175781,0.186767 0.175781,0.41748 0,0.296631 -0.241699,0.549317 -2.285156,2.48291 -4.438477,5.460205 0.889893,2.175293 2.460938,4.801025 0.131836,0.219727 0.131836,0.351563 0,0.252685 -0.32959,0.527343 l -0.351562,0.2417 q 0.04394,0.131836 0.04394,0.351562 0,0.32959 -0.241699,0.505371 -0.285645,0.197754 -0.417481,0.197754 -0.285644,0 -0.505371,-0.285644 -1.318359,-1.691895 -2.724609,-3.977051 -1.8896488,2.460937 -4.3286136,6.569824 -0.3515625,0.593262 -1.1865235,0.593262 -0.3955078,0 -0.4394531,-0.461426 -0.5603027,-0.307617 -0.5603027,-0.977783 0,-0.878906 0.1208496,-1.219483 0.054932,-0.153808 0.3515625,-0.615234 2.2412109,-3.493652 4.7460938,-6.416016 -1.3403321,-3.186035 -1.7797852,-4.910888 -0.098877,-0.384522 -0.098877,-0.494385 0,-0.153809 0.1977539,-0.439453 0.2087403,-0.285645 0.3845215,-0.285645 0.1647949,0 0.4174805,0.318604 0.098877,-0.186768 0.2416992,-0.318604 0.1977541,-0.175781 0.5053711,-0.175781 0.351563,0 0.461426,0.32959 0.593262,1.845703 1.560058,3.515625 1.560059,-2.021485 3.80127,-4.262695 0.263672,-0.263672 0.41748,-0.263672 z" />
  </g>
</svg>
