<?xml version="1.0" encoding="UTF-8" standalone="no"?>
<!-- Created with Inkscape (http://www.inkscape.org/) -->

<svg
   xmlns:dc="http://purl.org/dc/elements/1.1/"
   xmlns:cc="http://creativecommons.org/ns#"
   xmlns:rdf="http://www.w3.org/1999/02/22-rdf-syntax-ns#"
   xmlns:svg="http://www.w3.org/2000/svg"
   xmlns="http://www.w3.org/2000/svg"
   xmlns:sodipodi="http://sodipodi.sourceforge.net/DTD/sodipodi-0.dtd"
   xmlns:inkscape="http://www.inkscape.org/namespaces/inkscape"
   width="24"
   height="24"
   id="svg2"
   sodipodi:version="0.32"
   inkscape:version="0.91 r13725"
   version="1.0"
   sodipodi:docname="decorator_taskstate_failed.svg"
   inkscape:output_extension="org.inkscape.output.svg.inkscape"
   viewBox="0 0 24 24">
  <defs
     id="defs4" />
  <sodipodi:namedview
     id="base"
     pagecolor="#ffffff"
     bordercolor="#666666"
     borderopacity="1.0"
     gridtolerance="10000"
     guidetolerance="10"
     objecttolerance="10"
     inkscape:pageopacity="0.0"
     inkscape:pageshadow="2"
     inkscape:zoom="26.506384"
     inkscape:cx="10.4224"
     inkscape:cy="9.0133662"
     inkscape:document-units="px"
     inkscape:current-layer="layer1"
     width="744.09449px"
     height="1052.3622px"
     showgrid="true"
     gridanglex="8.4666669mm"
     gridanglez="8.4666669mm"
     grid_units="mm"
     inkscape:window-width="1272"
     inkscape:window-height="746"
     inkscape:window-x="0"
     inkscape:window-y="0"
     inkscape:snap-bbox="true"
     inkscape:bbox-nodes="true"
     inkscape:object-nodes="true"
     inkscape:snap-global="true">
    <inkscape:grid
       id="GridFromPre046Settings"
       type="xygrid"
       originx="0px"
       originy="0px"
       spacingx="0.5"
       spacingy="0.5"
       color="#3f3fff"
       empcolor="#3f3fff"
       opacity="0.15"
       empopacity="0.38"
       empspacing="5" />
  </sodipodi:namedview>
  <metadata
     id="metadata7">
    <rdf:RDF>
      <cc:Work
         rdf:about="">
        <dc:format>image/svg+xml</dc:format>
        <dc:type
           rdf:resource="http://purl.org/dc/dcmitype/StillImage" />
        <dc:title />
      </cc:Work>
    </rdf:RDF>
  </metadata>
  <g
     inkscape:label="Layer 1"
     inkscape:groupmode="layer"
     id="layer1"
     transform="translate(0,-29.022666)">
    <path
       inkscape:connector-curvature="0"
       style="fill:#000000"
       d="m 3,32.022666 0,18 18,0 0,-18 -18,0 z m 9,1.367187 0.365234,0.632813 6.634766,0 0,11.490234 1.449219,2.509766 -1.449219,0 -12.6171875,0 -1.3828125,0 -1.4492188,0 L 5,45.5129 5,34.022666 l 6.634766,0 L 12,33.389853 Z"
       id="rect5400" />
    <path
       style="fill:#000000"
       d="m 12,34.888672 -7.1503906,12.384766 1.5332031,0 12.7675785,0 L 12,34.888672 Z m 0,3.539062 4.085938,7.076172 -8.1718755,0 L 12,38.427734 Z"
       id="path7696"
       inkscape:connector-curvature="0" />
    <path
       style="fill:#000000"
       d="m 11.25,39.767578 0,3.5 1.5,0 0,-3.5 -1.5,0 z"
       id="path7699"
       inkscape:connector-curvature="0" />
    <path
       style="fill:#000000"
       d="m 12.75,44.36478 a 0.75,0.75 0 0 1 -0.75,0.75 0.75,0.75 0 0 1 -0.75,-0.75 0.75,0.75 0 0 1 0.75,-0.75 0.75,0.75 0 0 1 0.75,0.75 z"
       id="path7701"
       inkscape:connector-curvature="0" />
  </g>
</svg>
