<?xml version="1.0" encoding="UTF-8" standalone="no"?>
<!-- Created with Inkscape (http://www.inkscape.org/) -->

<svg
   xmlns:dc="http://purl.org/dc/elements/1.1/"
   xmlns:cc="http://creativecommons.org/ns#"
   xmlns:rdf="http://www.w3.org/1999/02/22-rdf-syntax-ns#"
   xmlns:svg="http://www.w3.org/2000/svg"
   xmlns="http://www.w3.org/2000/svg"
   xmlns:sodipodi="http://sodipodi.sourceforge.net/DTD/sodipodi-0.dtd"
   xmlns:inkscape="http://www.inkscape.org/namespaces/inkscape"
   width="24"
   height="24"
   id="svg2"
   sodipodi:version="0.32"
   inkscape:version="0.91 r13725"
   version="1.0"
   sodipodi:docname="decorator_taskstate_available.svg"
   inkscape:output_extension="org.inkscape.output.svg.inkscape"
   viewBox="0 0 24 24">
  <defs
     id="defs4" />
  <sodipodi:namedview
     id="base"
     pagecolor="#ffffff"
     bordercolor="#666666"
     borderopacity="1.0"
     gridtolerance="10000"
     guidetolerance="10"
     objecttolerance="10"
     inkscape:pageopacity="0.0"
     inkscape:pageshadow="2"
     inkscape:zoom="10.044041"
     inkscape:cx="4.8163785"
     inkscape:cy="13.337415"
     inkscape:document-units="px"
     inkscape:current-layer="layer1"
     width="744.09449px"
     height="1052.3622px"
     showgrid="true"
     gridanglex="8.4666669mm"
     gridanglez="8.4666669mm"
     grid_units="mm"
     inkscape:window-width="1272"
     inkscape:window-height="746"
     inkscape:window-x="0"
     inkscape:window-y="0">
    <inkscape:grid
       id="GridFromPre046Settings"
       type="xygrid"
       originx="0px"
       originy="0px"
       spacingx="0.014111111"
       spacingy="0.014111111"
       color="#3f3fff"
       empcolor="#3f3fff"
       opacity="0.15"
       empopacity="0.38"
       empspacing="5" />
  </sodipodi:namedview>
  <metadata
     id="metadata7">
    <rdf:RDF>
      <cc:Work
         rdf:about="">
        <dc:format>image/svg+xml</dc:format>
        <dc:type
           rdf:resource="http://purl.org/dc/dcmitype/StillImage" />
        <dc:title />
      </cc:Work>
    </rdf:RDF>
  </metadata>
  <g
     inkscape:label="Layer 1"
     inkscape:groupmode="layer"
     id="layer1"
     transform="translate(0,-29.022666)">
    <path
       inkscape:connector-curvature="0"
       style="color:#000000"
       d="m 3.02107,32.033332 0,0.96873 0,17.023253 17.992,0 0,-17.991983 -4.32808,0 c 0.433611,0.583222 0.716559,1.273806 0.820306,2.005845 l 1.570296,0 0,13.980328 -14.0486813,0 0,-13.980328 2.2304462,0 -0.9843666,-2.005845 -3.2519193,0 z m 9.13467,0.06732 c -1.118426,0 -2.1603212,0.401807 -3.183561,0.830188 l 0.1386836,0.347241 c 0.9685884,-0.390823 1.9465944,-0.759677 2.8359094,-0.759677 0.691671,0 1.326757,0.09921 1.869121,0.484365 0.346142,0.244485 0.596343,0.625033 0.746086,1.035343 l 0.917958,0 c -0.105022,-0.47905 -0.344547,-0.835503 -0.763663,-1.175657 -0.572493,-0.467003 -1.37958,-0.761803 -2.56052,-0.761803 z"
       id="rect4152" />
    <path
       style="color:#000000"
       id="path4797"
       d="m 10.179199,40.857422 0,-0.722473 q 0,-0.937549 0.400386,-1.630967 0.400386,-0.693418 1.464827,-1.47471 1.02538,-0.732394 1.34764,-1.191601 0.33204,-0.458854 0.33204,-1.025423 0,-0.634954 -0.468746,-0.966958 -0.468746,-0.333068 -1.308579,-0.333068 -1.464827,0 -3.3398092,0.957038 l -1.064441,-2.138718 q 2.1777117,-1.220657 4.6190932,-1.220657 2.011698,0 3.193326,0.966958 1.191393,0.966959 1.191393,2.578084 0,1.07432 -0.488277,1.855256 -0.488277,0.781291 -1.855448,1.757817 -0.937489,0.693418 -1.191393,1.054831 -0.244131,0.361414 -0.244131,0.947117 l 0,0.586056 -2.587863,0 z m -0.312481,3.339886 q 0,-0.820267 0.439447,-1.240144 0.439451,-0.419878 1.279284,-0.419878 0.810537,0 1.249987,0.429799 0.449213,0.429799 0.449213,1.230578 0,0.77137 -0.449213,1.220656 -0.449212,0.439366 -1.249987,0.439366 -0.820303,0 -1.269519,-0.429799 -0.449212,-0.439365 -0.449212,-1.230578 z"
       inkscape:connector-curvature="0" />
  </g>
</svg>
