<?xml version="1.0" encoding="UTF-8" standalone="no"?>
<!-- Created with Inkscape (http://www.inkscape.org/) -->

<svg
    xmlns:dc="http://purl.org/dc/elements/1.1/"
    xmlns:cc="http://creativecommons.org/ns#"
    xmlns:rdf="http://www.w3.org/1999/02/22-rdf-syntax-ns#"
    xmlns="http://www.w3.org/2000/svg"
    xmlns:xlink="http://www.w3.org/1999/xlink"
    xmlns:sodipodi="http://sodipodi.sourceforge.net/DTD/sodipodi-0.dtd"
    xmlns:inkscape="http://www.inkscape.org/namespaces/inkscape"
    width="47.23893"
    height="47.23893"
    id="svg2"
    version="1.1"
    inkscape:version="0.48+devel r"
    sodipodi:docname="ic_action_save.svg">
  <defs
     id="defs4">
    <path
       style="fill-rule:nonzero;stroke-width:2;stroke-linecap:butt;stroke-linejoin:miter;stroke-miterlimit:4;stroke-opacity:1;stroke-dasharray:none;stroke-dashoffset:0;marker:none;visibility:visible;display:inline;overflow:visible;enable-background:accumulate;clip-rule:nonzero;color-rendering:auto;image-rendering:auto;shape-rendering:auto;text-rendering:auto"
       d="m 73,25.23893 9,-9 0,6 14,0 0,6 -14,0 0,6 z"
       id="path4191"
       inkscape:connector-curvature="0"
       transform="translate(-322.90518,508.74271)"
       sodipodi:nodetypes="cccccccc" />
  </defs>
  <sodipodi:namedview
     id="base"
     pagecolor="#ffffff"
     bordercolor="#666666"
     borderopacity="1.0"
     inkscape:pageopacity="0.0"
     inkscape:pageshadow="2"
     inkscape:zoom="9.08"
     inkscape:cx="72.428732"
     inkscape:cy="1.4207122"
     inkscape:document-units="px"
     inkscape:current-layer="layer1"
     showgrid="true"
     fit-margin-top="0"
     fit-margin-left="0"
     fit-margin-right="0"
     fit-margin-bottom="0"
     inkscape:snap-page="true"
     inkscape:object-nodes="true"
     showguides="true"
     inkscape:guide-bbox="true"
     inkscape:snap-nodes="false"
     inkscape:snap-bbox="true"
     inkscape:bbox-paths="true"
     inkscape:snap-grids="false"
     inkscape:bbox-nodes="true">
    <inkscape:grid
       type="xygrid"
       id="grid4189"
       spacingx="0.5px"
       spacingy="0.5px"
       empspacing="2" />
    <sodipodi:guide
       orientation="0,1"
       position="99.23893,47.23893"
       id="guide4193" />
    <sodipodi:guide
       orientation="0,1"
       position="99.23893,0"
       id="guide4195" />
    <sodipodi:guide
       orientation="1,0"
       position="52,47.23893"
       id="guide4197" />
    <sodipodi:guide
       orientation="1,0"
       position="99.23893,47.23893"
       id="guide4199" />
  </sodipodi:namedview>
  <metadata
     id="metadata7">
    <rdf:RDF>
      <cc:Work
         rdf:about="">
        <dc:format>image/svg+xml</dc:format>
        <dc:type
           rdf:resource="http://purl.org/dc/dcmitype/StillImage" />
        <dc:title></dc:title>
      </cc:Work>
    </rdf:RDF>
  </metadata>
  <g
     inkscape:label="Layer 1"
     inkscape:groupmode="layer"
     id="layer1"
     transform="translate(322.90518,-508.74271)">
    <g
       id="ic_action_save"
       inkscape:label="#g4179">
      <path
         inkscape:connector-curvature="0"
         id="rect4129"
         d="m -314.59268,515.86966 c -0.46244,0 -0.83398,0.3735 -0.83398,0.83594 l 0,31.0957 c 0,0.46244 0.37154,0.83399 0.83398,0.83399 l 30.58594,0 c 0.46244,0 0.83398,-0.37155 0.83398,-0.83399 l 0,-25.13086 -6.80078,-6.80078 -2.88867,0 0,11.6543 c 0,0.20084 -0.16244,0.36133 -0.36328,0.36133 l -17.15821,0 c -0.20084,0 -0.36328,-0.16049 -0.36328,-0.36133 l 0,-11.6543 -3.8457,0 z m 12.28516,1.21485 c -0.19553,0 -0.35157,0.15799 -0.35157,0.35351 l 0,7.97071 c 0,0.19552 0.15604,0.35351 0.35157,0.35351 l 6.25976,0 c 0.19553,0 0.35352,-0.15799 0.35352,-0.35351 l 0,-7.97071 c 0,-0.19552 -0.15799,-0.35351 -0.35352,-0.35351 l -6.25976,0 z m -8.07618,14.16601 22.17579,0 c 0.20084,0 0.36328,0.16244 0.36328,0.36328 l 0,14.38477 c 0,0.20084 -0.16244,0.36133 -0.36328,0.36133 l -22.17579,0 c -0.20084,0 -0.36328,-0.16049 -0.36328,-0.36133 l 0,-14.38477 c 0,-0.20084 0.16244,-0.36328 0.36328,-0.36328 z m 2.30274,4.01367 c -0.20084,0 -0.36328,0.16244 -0.36328,0.36329 l 0,1.28125 c 0,0.20084 0.16244,0.36328 0.36328,0.36328 l 16.74609,0 c 0.20085,0 0.36133,-0.16244 0.36133,-0.36328 l 0,-1.28125 c 0,-0.20085 -0.16048,-0.36329 -0.36133,-0.36329 l -16.74609,0 z m 0,5.41602 c -0.20085,0 -0.36328,0.16243 -0.36328,0.36328 l 0,1.28125 c 0,0.20084 0.16243,0.36328 0.36328,0.36328 l 16.74609,0 c 0.20085,0 0.36133,-0.16244 0.36133,-0.36328 l 0,-1.28125 c 0,-0.20085 -0.16048,-0.36328 -0.36133,-0.36328 l -16.74609,0 z"
         style="color:#000000;color-interpolation:sRGB;color-interpolation-filters:linearRGB;fill:#333333;fill-opacity:0.60000002;fill-rule:nonzero;stroke:none;stroke-width:5.01200008;marker:none;visibility:visible;display:inline;overflow:visible;enable-background:accumulate;clip-rule:nonzero;color-rendering:auto;image-rendering:auto;shape-rendering:auto;text-rendering:auto" />
      <rect
         transform="translate(-322.90518,508.74271)"
         y="0"
         x="0"
         height="47.23893"
         width="47.23893"
         id="rect4174"
         x-style="color:#000000;color-interpolation:sRGB;color-interpolation-filters:linearRGB;fill:none;fill-opacity:0.6;fill-rule:nonzero;stroke:none;stroke-width:5.01200008;marker:none;visibility:visible;display:inline;overflow:visible;enable-background:accumulate;clip-rule:nonzero;color-rendering:auto;image-rendering:auto;shape-rendering:auto;text-rendering:auto"
         style="color:#000000;color-interpolation:sRGB;color-interpolation-filters:linearRGB;fill:none;stroke:none;stroke-width:5.01200008;marker:none;visibility:visible;display:inline;overflow:visible;enable-background:accumulate;clip-rule:nonzero;color-rendering:auto;image-rendering:auto;shape-rendering:auto;text-rendering:auto" />
    </g>
    <g
       id="ic_action_import">
      <use
         height="100%"
         width="100%"
         transform="translate(52,0)"
         id="use4186"
         xlink:href="#rect4174"
         y="0"
         x="0" />
      <g
         transform="translate(7.4332517,0)"
         id="g4245">
        <use
           x="0"
           y="0"
           xlink:href="#rect4129"
           id="use4183"
           transform="translate(49.05422,0)"
           width="100%"
           height="100%" />
        <g
           id="g4241"
           transform="translate(-24,0)">
          <use
             x="0"
             y="0"
             xlink:href="#path4191"
             id="use4239"
             style="fill:#ffffff;fill-opacity:1;stroke:#ffffff;stroke-width:1.5px"
             width="100%"
             height="100%" />
          <use
             height="100%"
             width="100%"
             style="fill:#333333;fill-opacity:0.6"
             id="use4235"
             xlink:href="#path4191"
             y="0"
             x="0" />
        </g>
      </g>
    </g>
    <g
       id="ic_action_export"
       transform="translate(0,50.220264)">
      <use
         x="0"
         y="0"
         xlink:href="#rect4174"
         id="use4261"
         transform="translate(52,0)"
         width="100%"
         height="100%" />
      <g
         id="g4263"
         transform="translate(7.4332517,0)">
        <use
           height="100%"
           width="100%"
           transform="translate(49.05422,0)"
           id="use4265"
           xlink:href="#rect4129"
           y="0"
           x="0" />
        <g
           transform="matrix(-1,0,0,1,-501.22457,0)"
           id="g4267">
          <use
             height="100%"
             width="100%"
             style="fill:#ffffff;fill-opacity:1;stroke:#ffffff;stroke-width:1.5px"
             id="use4269"
             xlink:href="#path4191"
             y="0"
             x="0" />
          <use
             x="0"
             y="0"
             xlink:href="#path4191"
             id="use4271"
             style="fill:#333333;fill-opacity:0.6"
             width="100%"
             height="100%" />
        </g>
      </g>
    </g>
  </g>
</svg>
